<svg xmlns="http://www.w3.org/2000/svg" viewBox="0 0 1200 800" width="1200" height="800">
  <defs>
    <linearGradient id="headerGrad" x1="0%" y1="0%" x2="100%" y2="0%">
      <stop offset="0%" style="stop-color:#6366f1"/>
      <stop offset="100%" style="stop-color:#8b5cf6"/>
    </linearGradient>
    <linearGradient id="moduleGrad" x1="0%" y1="0%" x2="0%" y2="100%">
      <stop offset="0%" style="stop-color:#f8fafc"/>
      <stop offset="100%" style="stop-color:#e2e8f0"/>
    </linearGradient>
    <filter id="shadow" x="-20%" y="-20%" width="140%" height="140%">
      <feDropShadow dx="2" dy="4" stdDeviation="4" flood-opacity="0.15"/>
    </filter>
  </defs>
  
  <!-- Background -->
  <rect width="1200" height="800" fill="#f1f5f9"/>
  
  <!-- Title -->
  <text x="600" y="45" text-anchor="middle" font-family="system-ui, -apple-system, sans-serif" font-size="28" font-weight="700" fill="#1e293b">ResearchPulse - ReAct Agent Architecture</text>
  <text x="600" y="72" text-anchor="middle" font-family="system-ui, sans-serif" font-size="14" fill="#64748b">Autonomous Research Paper Discovery and Filtering System</text>
  
  <!-- User Input Box -->
  <g filter="url(#shadow)">
    <rect x="475" y="95" width="250" height="50" rx="8" fill="url(#headerGrad)"/>
    <text x="600" y="127" text-anchor="middle" font-family="system-ui, sans-serif" font-size="16" font-weight="600" fill="white">User Prompt Input</text>
  </g>
  
  <!-- Arrow from User to FastAPI -->
  <path d="M600 145 L600 170" stroke="#64748b" stroke-width="2" marker-end="url(#arrowhead)"/>
  <defs>
    <marker id="arrowhead" markerWidth="10" markerHeight="7" refX="9" refY="3.5" orient="auto">
      <polygon points="0 0, 10 3.5, 0 7" fill="#64748b"/>
    </marker>
  </defs>
  
  <!-- FastAPI Backend -->
  <g filter="url(#shadow)">
    <rect x="400" y="175" width="400" height="60" rx="10" fill="#10b981"/>
    <text x="600" y="200" text-anchor="middle" font-family="system-ui, sans-serif" font-size="14" font-weight="600" fill="white">FastAPI Backend</text>
    <text x="600" y="220" text-anchor="middle" font-family="system-ui, sans-serif" font-size="12" fill="rgba(255,255,255,0.9)">POST /api/execute • GET /api/team_info • GET /api/agent_info</text>
  </g>
  
  <!-- Arrow to ReAct Agent -->
  <path d="M600 235 L600 265" stroke="#64748b" stroke-width="2" marker-end="url(#arrowhead)"/>
  
  <!-- ReAct Agent Core -->
  <g filter="url(#shadow)">
    <rect x="350" y="270" width="500" height="80" rx="12" fill="#6366f1"/>
    <text x="600" y="300" text-anchor="middle" font-family="system-ui, sans-serif" font-size="18" font-weight="700" fill="white">ReAct Agent Core</text>
    <text x="600" y="325" text-anchor="middle" font-family="system-ui, sans-serif" font-size="13" fill="rgba(255,255,255,0.9)">Reasoning + Acting Loop • LangChain Framework • Stop Policy Controller</text>
  </g>
  
  <!-- Connecting lines to modules -->
  <path d="M600 350 L600 380 L150 380 L150 420" stroke="#94a3b8" stroke-width="2" fill="none"/>
  <path d="M600 350 L600 380 L390 380 L390 420" stroke="#94a3b8" stroke-width="2" fill="none"/>
  <path d="M600 350 L600 420" stroke="#94a3b8" stroke-width="2" fill="none"/>
  <path d="M600 350 L600 380 L810 380 L810 420" stroke="#94a3b8" stroke-width="2" fill="none"/>
  <path d="M600 350 L600 380 L1050 380 L1050 420" stroke="#94a3b8" stroke-width="2" fill="none"/>
  
  <!-- Module 1: FetchArxivPapers -->
  <g filter="url(#shadow)">
    <rect x="50" y="420" width="200" height="90" rx="8" fill="url(#moduleGrad)" stroke="#cbd5e1" stroke-width="1"/>
    <rect x="50" y="420" width="200" height="30" rx="8" fill="#3b82f6"/>
    <rect x="50" y="442" width="200" height="8" fill="#3b82f6"/>
    <text x="150" y="442" text-anchor="middle" font-family="monospace" font-size="11" font-weight="600" fill="white">FetchArxivPapers</text>
    <text x="150" y="475" text-anchor="middle" font-family="system-ui, sans-serif" font-size="10" fill="#475569">Query arXiv API</text>
    <text x="150" y="492" text-anchor="middle" font-family="system-ui, sans-serif" font-size="10" fill="#475569">Filter by categories</text>
  </g>
  
  <!-- Module 2: CheckSeenPapers -->
  <g filter="url(#shadow)">
    <rect x="290" y="420" width="200" height="90" rx="8" fill="url(#moduleGrad)" stroke="#cbd5e1" stroke-width="1"/>
    <rect x="290" y="420" width="200" height="30" rx="8" fill="#f59e0b"/>
    <rect x="290" y="442" width="200" height="8" fill="#f59e0b"/>
    <text x="390" y="442" text-anchor="middle" font-family="monospace" font-size="11" font-weight="600" fill="white">CheckSeenPapers</text>
    <text x="390" y="475" text-anchor="middle" font-family="system-ui, sans-serif" font-size="10" fill="#475569">Check Supabase DB</text>
    <text x="390" y="492" text-anchor="middle" font-family="system-ui, sans-serif" font-size="10" fill="#475569">Filter duplicates</text>
  </g>
  
  <!-- Module 3: RetrieveSimilarFromPinecone -->
  <g filter="url(#shadow)">
    <rect x="500" y="420" width="200" height="90" rx="8" fill="url(#moduleGrad)" stroke="#cbd5e1" stroke-width="1"/>
    <rect x="500" y="420" width="200" height="30" rx="8" fill="#8b5cf6"/>
    <rect x="500" y="442" width="200" height="8" fill="#8b5cf6"/>
    <text x="600" y="442" text-anchor="middle" font-family="monospace" font-size="9" font-weight="600" fill="white">RetrieveSimilarFromPinecone</text>
    <text x="600" y="475" text-anchor="middle" font-family="system-ui, sans-serif" font-size="10" fill="#475569">Vector similarity search</text>
    <text x="600" y="492" text-anchor="middle" font-family="system-ui, sans-serif" font-size="10" fill="#475569">Novelty detection</text>
  </g>
  
  <!-- Module 4: ScoreRelevanceAndImportance -->
  <g filter="url(#shadow)">
    <rect x="710" y="420" width="200" height="90" rx="8" fill="url(#moduleGrad)" stroke="#cbd5e1" stroke-width="1"/>
    <rect x="710" y="420" width="200" height="30" rx="8" fill="#ec4899"/>
    <rect x="710" y="442" width="200" height="8" fill="#ec4899"/>
    <text x="810" y="442" text-anchor="middle" font-family="monospace" font-size="9" font-weight="600" fill="white">ScoreRelevanceAndImportance</text>
    <text x="810" y="475" text-anchor="middle" font-family="system-ui, sans-serif" font-size="10" fill="#475569">Heuristic scoring</text>
    <text x="810" y="492" text-anchor="middle" font-family="system-ui, sans-serif" font-size="10" fill="#475569">Classify importance</text>
  </g>
  
  <!-- Module 5: DecideDeliveryAction -->
  <g filter="url(#shadow)">
    <rect x="950" y="420" width="200" height="90" rx="8" fill="url(#moduleGrad)" stroke="#cbd5e1" stroke-width="1"/>
    <rect x="950" y="420" width="200" height="30" rx="8" fill="#14b8a6"/>
    <rect x="950" y="442" width="200" height="8" fill="#14b8a6"/>
    <text x="1050" y="442" text-anchor="middle" font-family="monospace" font-size="11" font-weight="600" fill="white">DecideDeliveryAction</text>
    <text x="1050" y="475" text-anchor="middle" font-family="system-ui, sans-serif" font-size="10" fill="#475569">Apply delivery policy</text>
    <text x="1050" y="492" text-anchor="middle" font-family="system-ui, sans-serif" font-size="10" fill="#475569">Generate artifacts</text>
  </g>
  
  <!-- External Services Row -->
  <text x="600" y="560" text-anchor="middle" font-family="system-ui, sans-serif" font-size="14" font-weight="600" fill="#64748b">External Services</text>
  
  <!-- arXiv API -->
  <g filter="url(#shadow)">
    <rect x="80" y="580" width="160" height="60" rx="8" fill="#ef4444"/>
    <text x="160" y="605" text-anchor="middle" font-family="system-ui, sans-serif" font-size="12" font-weight="600" fill="white">arXiv API</text>
    <text x="160" y="625" text-anchor="middle" font-family="system-ui, sans-serif" font-size="10" fill="rgba(255,255,255,0.9)">Paper Source</text>
  </g>
  <path d="M150 510 L150 540 L160 540 L160 580" stroke="#94a3b8" stroke-width="1.5" fill="none" stroke-dasharray="4,3"/>
  
  <!-- Supabase -->
  <g filter="url(#shadow)">
    <rect x="280" y="580" width="160" height="60" rx="8" fill="#22c55e"/>
    <text x="360" y="605" text-anchor="middle" font-family="system-ui, sans-serif" font-size="12" font-weight="600" fill="white">Supabase</text>
    <text x="360" y="625" text-anchor="middle" font-family="system-ui, sans-serif" font-size="10" fill="rgba(255,255,255,0.9)">Primary Database</text>
  </g>
  <path d="M390 510 L390 540 L360 540 L360 580" stroke="#94a3b8" stroke-width="1.5" fill="none" stroke-dasharray="4,3"/>
  
  <!-- Pinecone -->
  <g filter="url(#shadow)">
    <rect x="480" y="580" width="160" height="60" rx="8" fill="#8b5cf6"/>
    <text x="560" y="605" text-anchor="middle" font-family="system-ui, sans-serif" font-size="12" font-weight="600" fill="white">Pinecone</text>
    <text x="560" y="625" text-anchor="middle" font-family="system-ui, sans-serif" font-size="10" fill="rgba(255,255,255,0.9)">Vector Database</text>
  </g>
  <path d="M600 510 L600 540 L560 540 L560 580" stroke="#94a3b8" stroke-width="1.5" fill="none" stroke-dasharray="4,3"/>
  
  <!-- LLMod.ai -->
  <g filter="url(#shadow)">
    <rect x="680" y="580" width="160" height="60" rx="8" fill="#f97316"/>
    <text x="760" y="605" text-anchor="middle" font-family="system-ui, sans-serif" font-size="12" font-weight="600" fill="white">LLMod.ai</text>
    <text x="760" y="625" text-anchor="middle" font-family="system-ui, sans-serif" font-size="10" fill="rgba(255,255,255,0.9)">LLM Provider</text>
  </g>
  <path d="M600 350 L980 350 L980 540 L760 540 L760 580" stroke="#94a3b8" stroke-width="1.5" fill="none" stroke-dasharray="4,3"/>
  
  <!-- Output Artifacts -->
  <g filter="url(#shadow)">
    <rect x="880" y="580" width="240" height="60" rx="8" fill="#0ea5e9"/>
    <text x="1000" y="605" text-anchor="middle" font-family="system-ui, sans-serif" font-size="12" font-weight="600" fill="white">Output Artifacts</text>
    <text x="1000" y="625" text-anchor="middle" font-family="system-ui, sans-serif" font-size="10" fill="rgba(255,255,255,0.9)">📧 Email • 📅 Calendar • 📚 Reading List</text>
  </g>
  <path d="M1050 510 L1050 540 L1000 540 L1000 580" stroke="#94a3b8" stroke-width="1.5" fill="none" stroke-dasharray="4,3"/>
  
  <!-- GenerateReport Module -->
  <g filter="url(#shadow)">
    <rect x="450" y="680" width="300" height="70" rx="10" fill="#1e293b"/>
    <text x="600" y="710" text-anchor="middle" font-family="monospace" font-size="14" font-weight="600" fill="white">GenerateReport</text>
    <text x="600" y="732" text-anchor="middle" font-family="system-ui, sans-serif" font-size="11" fill="#94a3b8">Final summary • Steps log • Artifacts list</text>
  </g>
  <path d="M600 640 L600 680" stroke="#64748b" stroke-width="2" marker-end="url(#arrowhead)"/>
  
  <!-- Legend -->
  <g transform="translate(40, 700)">
    <text x="0" y="0" font-family="system-ui, sans-serif" font-size="11" font-weight="600" fill="#64748b">Legend:</text>
    <rect x="0" y="10" width="12" height="12" rx="2" fill="#6366f1"/>
    <text x="18" y="20" font-family="system-ui, sans-serif" font-size="10" fill="#475569">Agent Core</text>
    <rect x="80" y="10" width="12" height="12" rx="2" fill="url(#moduleGrad)" stroke="#cbd5e1"/>
    <text x="98" y="20" font-family="system-ui, sans-serif" font-size="10" fill="#475569">Tool Modules</text>
    <line x1="175" y1="16" x2="200" y2="16" stroke="#94a3b8" stroke-width="1.5" stroke-dasharray="4,3"/>
    <text x="208" y="20" font-family="system-ui, sans-serif" font-size="10" fill="#475569">External API</text>
  </g>
  
  <!-- Version -->
  <text x="1160" y="780" text-anchor="end" font-family="system-ui, sans-serif" font-size="10" fill="#94a3b8">v1.0 • ResearchPulse</text>
</svg>
